# xmcd
#
# Track frame offsets:
#	150
#	17535
#	47310
#	76425
#
# Disc length: 1297 seconds
# Revision: 0
# Processed by: cddbd v1.5.2PL0 Copyright (c) Steve Scherf et al.
# Submitted via: dBpowerAMP V12.0
#
DISCID=1e050f04
DTITLE=Boy Krazy - That's What Love Can Do '93
DYEAR=1993
DGENRE=House
TTITLE0=That's What Love Can Do '93 [Gigolo Radio]
TTITLE1=That's What Love Can Do '93 [Man Mad Club]
TTITLE2=That's What Love Can Do '93 [Gigolo Club]
TTITLE3=That's What Love Can Do '93 [Safe In The Hands Of Dub]
EXTD=
EXTT0=
EXTT1=
EXTT2=
EXTT3=
PLAYORDER=
